<svg version="1.1" xmlns="http://www.w3.org/2000/svg" viewBox="0 0 1087.6001739501953 770.9999885559083" width="1087.6001739501953" height="770.9999885559083" class="excalidraw-svg">
  <!-- svg-source:excalidraw -->
  
  <defs>
    <style class="style-fonts">
      @font-face {
        font-family: "Virgil";
        src: url("https://excalidraw.com/Virgil.woff2");
      }
      @font-face {
        font-family: "Cascadia";
        src: url("https://excalidraw.com/Cascadia.woff2");
      }
      @font-face {
        font-family: "Assistant";
        src: url("https://excalidraw.com/Assistant-Regular.woff2");
      }
    </style>
    
  </defs>
  <g stroke-linecap="round" transform="translate(10 10) rotate(0 533.8000869750977 375.49999427795416)"><path d="M32 0 C272.98 -0.21, 514.25 -1.39, 1035.6 0 M32 0 C269.97 -2, 508.25 -1.47, 1035.6 0 M1035.6 0 C1055.82 -1.75, 1068.82 10.8, 1067.6 32 M1035.6 0 C1056.16 -0.34, 1068.78 10.56, 1067.6 32 M1067.6 32 C1070.01 263.44, 1069.56 494.24, 1067.6 719 M1067.6 32 C1068.09 250.78, 1067.85 469.12, 1067.6 719 M1067.6 719 C1067.73 741.17, 1056.77 751.24, 1035.6 751 M1067.6 719 C1069.14 739.67, 1056.46 750.67, 1035.6 751 M1035.6 751 C701.51 753.59, 367.92 753.83, 32 751 M1035.6 751 C650.66 752.64, 265.09 752.94, 32 751 M32 751 C9.55 752.72, -1.89 740.16, 0 719 M32 751 C11 750.83, -0.38 740.68, 0 719 M0 719 C0.01 507.15, 0.17 294.04, 0 32 M0 719 C-2.57 554.2, -3.08 390.13, 0 32 M0 32 C1.36 10.7, 11.55 -0.88, 32 0 M0 32 C-0.34 9.79, 12.44 1.01, 32 0" stroke="#1e1e1e" stroke-width="2" fill="none"></path></g><g transform="translate(15 15) rotate(0 85.0341796875 20.69999999999999)"><text x="0" y="0" font-family="Helvetica, Segoe UI Emoji" font-size="36px" fill="#1e1e1e" text-anchor="start" style="white-space: pre;" direction="ltr" dominant-baseline="text-before-edge">  Academy</text></g><g stroke-linecap="round" transform="translate(486.1333872477214 148.73329035441088) rotate(0 195.23334757486978 254.33335367838538)"><path d="M32 0 C126.56 -0.04, 218.48 0.37, 358.47 0 C378.02 2.43, 390.66 7.75, 390.47 32 C392.07 163.23, 393.45 296.68, 390.47 476.67 C387.32 495.64, 377.24 506.75, 358.47 508.67 C285.66 511.69, 213.01 510.61, 32 508.67 C11.52 505.08, -0.93 498.02, 0 476.67 C-1.54 320.61, 0.9 167.59, 0 32 C-1.39 10.9, 10.61 3.32, 32 0" stroke="none" stroke-width="0" fill="#e9ecef"></path><path d="M32 0 C132.2 2.26, 231.86 2.37, 358.47 0 M358.47 0 C381.44 -1.84, 388.52 10.99, 390.47 32 M390.47 32 C389.54 202.86, 389.55 372.16, 390.47 476.67 M390.47 476.67 C389.48 499.17, 379.18 510.62, 358.47 508.67 M358.47 508.67 C250.58 510.8, 146.24 510.05, 32 508.67 M32 508.67 C10.82 508, 0.76 499.29, 0 476.67 M0 476.67 C1.92 365.94, 1.49 253.11, 0 32 M0 32 C-1.76 9.02, 10.2 -0.55, 32 0" stroke="#1e1e1e" stroke-width="2.5" fill="none" stroke-dasharray="8 10"></path></g><g transform="translate(491.1333872477214 153.73329035441088) rotate(0 89.66796875 11.5)"><text x="0" y="0" font-family="Helvetica, Segoe UI Emoji" font-size="20px" fill="#1e1e1e" text-anchor="start" style="white-space: pre;" direction="ltr" dominant-baseline="text-before-edge">    agents[0].Train(n)</text></g><g stroke-linecap="round" transform="translate(606.8000946044922 242.6000099182129) rotate(0 67.0999755859375 55.79998779296875)"><path d="M27.9 0 C55.99 2.8, 79.68 2.38, 106.3 0 C124.7 0.05, 131.85 10.3, 134.2 27.9 C136.5 40.36, 136.75 51.34, 134.2 83.7 C133.96 101.2, 126.69 111.52, 106.3 111.6 C88.13 107.77, 66.81 106.96, 27.9 111.6 C7.7 109.97, -0.41 100.36, 0 83.7 C-2.36 70.06, -1.59 48.99, 0 27.9 C0.22 6.9, 7.68 0.21, 27.9 0" stroke="none" stroke-width="0" fill="#1e1e1e"></path><path d="M27.9 0 C58.82 -2.47, 84.51 -0.31, 106.3 0 M27.9 0 C58.07 0.63, 88.12 -0.5, 106.3 0 M106.3 0 C123.91 1.17, 133.58 11.25, 134.2 27.9 M106.3 0 C125.51 -0.78, 135.61 7.17, 134.2 27.9 M134.2 27.9 C134.76 47.04, 135.36 68.79, 134.2 83.7 M134.2 27.9 C133.68 42.9, 133.24 55.75, 134.2 83.7 M134.2 83.7 C132.44 100.65, 124.43 111.05, 106.3 111.6 M134.2 83.7 C133.88 104.24, 124.46 112.63, 106.3 111.6 M106.3 111.6 C84.38 112.82, 64.55 109.85, 27.9 111.6 M106.3 111.6 C82.4 111.5, 59.88 112.26, 27.9 111.6 M27.9 111.6 C7.55 110.29, -1.42 101.23, 0 83.7 M27.9 111.6 C7.59 110, 1.98 103.12, 0 83.7 M0 83.7 C0.04 66, -0.95 52.3, 0 27.9 M0 83.7 C-0.53 63.8, 0.84 45.61, 0 27.9 M0 27.9 C-0.77 9.43, 9.27 1.84, 27.9 0 M0 27.9 C-1.64 8.25, 9.72 0.23, 27.9 0" stroke="#1e1e1e" stroke-width="2" fill="none"></path></g><g transform="translate(617.7623748779297 286.89999771118164) rotate(0 56.1376953125 11.5)"><text x="56.1376953125" y="0" font-family="Helvetica, Segoe UI Emoji" font-size="20px" fill="#ffffff" text-anchor="middle" style="white-space: pre;" direction="ltr" dominant-baseline="text-before-edge">Environment</text></g><g stroke-linecap="round" transform="translate(684.1721925258034 407.80118440976327) rotate(0 50.97990073632396 45.98829578143918)"><path d="M22.99 0 C43.08 -0.46, 61.22 0.49, 78.97 0 C90.94 1.74, 100.48 9.48, 101.96 22.99 C102.2 36.88, 104.22 52.89, 101.96 68.98 C100.13 84.77, 91.19 93.35, 78.97 91.98 C64.63 89.39, 53.09 89.08, 22.99 91.98 C7.04 91.07, 2.18 81.7, 0 68.98 C0.64 50.07, -1.19 36.16, 0 22.99 C-3.38 9.86, 10.87 2.35, 22.99 0" stroke="none" stroke-width="0" fill="#1e1e1e"></path><path d="M22.99 0 C36.31 -1.05, 45.85 0.17, 78.97 0 M22.99 0 C41.88 0.96, 61.44 1.35, 78.97 0 M78.97 0 C94.83 -0.67, 103.18 5.81, 101.96 22.99 M78.97 0 C95.56 1.66, 101.97 7.84, 101.96 22.99 M101.96 22.99 C101.16 33.49, 101.78 47.49, 101.96 68.98 M101.96 22.99 C100.86 40.49, 101.51 59.36, 101.96 68.98 M101.96 68.98 C101.68 86, 93.91 92.88, 78.97 91.98 M101.96 68.98 C101.2 83.93, 93.92 90.84, 78.97 91.98 M78.97 91.98 C58.34 92.89, 38.85 90.31, 22.99 91.98 M78.97 91.98 C64.07 91.47, 50.21 91.59, 22.99 91.98 M22.99 91.98 C6.18 90.59, 1.72 85.03, 0 68.98 M22.99 91.98 C7.24 93.77, -1.43 84.86, 0 68.98 M0 68.98 C1.11 60.17, -0.41 49.71, 0 22.99 M0 68.98 C-0.82 57.14, -0.45 46.1, 0 22.99 M0 22.99 C-1.43 6.75, 8.03 0.2, 22.99 0 M0 22.99 C1.03 7.01, 6.77 0.68, 22.99 0" stroke="#1e1e1e" stroke-width="2" fill="none"></path></g><g transform="translate(713.3321240848812 444.3790632836426) rotate(0 21.819969177246094 9.41041690755985)"><text x="21.819969177246094" y="0" font-family="Helvetica, Segoe UI Emoji" font-size="16.36594244793018px" fill="#ffffff" text-anchor="middle" style="white-space: pre;" direction="ltr" dominant-baseline="text-before-edge">Policy</text></g><g mask="url(#mask-CZj6S2jmExoIoXrQJGApW)" stroke-linecap="round"><g transform="translate(839.7323301788072 361.35974266331755) rotate(0 -10.026014412741809 -28.247590969052965)"><path d="M0.15 0.55 C0.95 -0.33, 8.35 3.81, 4.21 -5.58 C0.07 -14.97, -19.91 -47.5, -24.69 -55.79 M-1.22 -0.2 C-0.52 -0.93, 7.44 5.13, 3.35 -4.46 C-0.74 -14.05, -21.14 -48.96, -25.77 -57.76" stroke="#1e1e1e" stroke-width="2" fill="none"></path></g><g transform="translate(839.7323301788072 361.35974266331755) rotate(0 -10.026014412741809 -28.247590969052965)"><path d="M-6.88 -41.39 C-10.67 -45.22, -17.69 -50.6, -25.77 -57.76 M-6.88 -41.39 C-13.34 -47.42, -19.77 -53.88, -25.77 -57.76" stroke="#1e1e1e" stroke-width="2" fill="none"></path></g><g transform="translate(839.7323301788072 361.35974266331755) rotate(0 -10.026014412741809 -28.247590969052965)"><path d="M-21.82 -33.08 C-21.84 -39.02, -25.09 -46.5, -25.77 -57.76 M-21.82 -33.08 C-22.89 -42.23, -23.97 -51.68, -25.77 -57.76" stroke="#1e1e1e" stroke-width="2" fill="none"></path></g></g><mask id="mask-CZj6S2jmExoIoXrQJGApW"><rect x="0" y="0" fill="#fff" width="967.8817711672042" height="517.8549246014235"></rect><rect x="819.0391768242287" y="349.05261532360163" fill="#000" width="49.48371887207031" height="15.056667052095763" opacity="1"></rect></mask><g transform="translate(819.0391768242288 349.05261532360163) rotate(0 10.538966600063105 -16.061132008000868)"><text x="24.741859436035156" y="0" font-family="Helvetica, Segoe UI Emoji" font-size="13.092753958344144px" fill="#1e1e1e" text-anchor="middle" style="white-space: pre;" direction="ltr" dominant-baseline="text-before-edge">1. action</text></g><g mask="url(#mask-j1S33FmfYyIP6L2-uh2Yl)" stroke-linecap="round"><g transform="translate(773.0801449072485 511.07543556913186) rotate(0 42.215380997762026 -13.069774329547514)"><path d="M-0.37 1.17 C6.22 4.8, 26.43 24.52, 38.94 22.51 C51.46 20.49, 68.76 0.75, 74.71 -10.93 C80.66 -22.61, 73.01 -41.24, 74.63 -47.58 C76.25 -53.91, 82.87 -48.79, 84.44 -48.96 M1.63 0.74 C8.14 4.48, 26.05 25.66, 38.16 23.83 C50.28 22.01, 68.15 2.05, 74.33 -10.2 C80.5 -22.45, 73.78 -43.29, 75.22 -49.68 C76.66 -56.06, 81.3 -48.57, 82.97 -48.52" stroke="#1e1e1e" stroke-width="1" fill="none"></path></g><g transform="translate(773.0801449072485 511.07543556913186) rotate(0 42.215380997762026 -13.069774329547514)"><path d="M77.9 -49.85 C79.69 -49.36, 80.27 -48.85, 82.97 -48.52 M77.9 -49.85 C78.96 -49.59, 79.92 -49.24, 82.97 -48.52" stroke="#1e1e1e" stroke-width="1" fill="none"></path></g><g transform="translate(773.0801449072485 511.07543556913186) rotate(0 42.215380997762026 -13.069774329547514)"><path d="M79.94 -52.79 C81.23 -51.58, 81.31 -50.32, 82.97 -48.52 M79.94 -52.79 C80.59 -51.91, 81.13 -50.95, 82.97 -48.52" stroke="#1e1e1e" stroke-width="1" fill="none"></path></g></g><mask id="mask-j1S33FmfYyIP6L2-uh2Yl"><rect x="0" y="0" fill="#fff" width="957.5109069027726" height="683.0397229722169"></rect><rect x="792.8598312380627" y="486.1993029380634" fill="#000" width="108.38868713378906" height="30.113334104191527" opacity="1"></rect></mask><g transform="translate(792.8598312380627 486.1993029380634) rotate(0 22.25182091854103 10.721475688576376)"><text x="54.19434356689453" y="0" font-family="Helvetica, Segoe UI Emoji" font-size="13.092753958344144px" fill="#1e1e1e" text-anchor="middle" style="white-space: pre;" direction="ltr" dominant-baseline="text-before-edge">3. learn</text><text x="54.19434356689453" y="15.056667052095763" font-family="Helvetica, Segoe UI Emoji" font-size="13.092753958344144px" fill="#1e1e1e" text-anchor="middle" style="white-space: pre;" direction="ltr" dominant-baseline="text-before-edge">&amp; compute metrics</text></g><g stroke-linecap="round" transform="translate(536.5333506266277 181.53327814737963) rotate(0 195.23334757486978 254.33335367838538)"><path d="M32 0 C162.52 -1.72, 291.52 -0.8, 358.47 0 C381.84 1.13, 387.91 14.16, 390.47 32 C386.42 193.16, 388.35 358, 390.47 476.67 C388.26 497.23, 382.28 507.33, 358.47 508.67 C239.54 507.38, 118 506.87, 32 508.67 C11.45 506, -1 498.88, 0 476.67 C4.46 374.93, 2.32 270.03, 0 32 C3.4 13.04, 12.29 -0.61, 32 0" stroke="none" stroke-width="0" fill="#e9ecef"></path><path d="M32 0 C157.47 0.11, 282.97 -2.04, 358.47 0 M358.47 0 C380.68 -0.46, 391.91 9.32, 390.47 32 M390.47 32 C389.13 202.67, 388.46 373.99, 390.47 476.67 M390.47 476.67 C390.59 497.74, 380.68 508.51, 358.47 508.67 M358.47 508.67 C247.5 508.47, 134.27 507.22, 32 508.67 M32 508.67 C9.09 510.48, 1.66 497.15, 0 476.67 M0 476.67 C-0.15 343.55, -0.59 209.5, 0 32 M0 32 C0.34 10.12, 12.06 -0.88, 32 0" stroke="#1e1e1e" stroke-width="2.5" fill="none" stroke-dasharray="8 10"></path></g><g transform="translate(541.5333506266277 186.53327814737963) rotate(0 89.66796875 11.5)"><text x="0" y="0" font-family="Helvetica, Segoe UI Emoji" font-size="20px" fill="#1e1e1e" text-anchor="start" style="white-space: pre;" direction="ltr" dominant-baseline="text-before-edge">    agents[1].Train(n)</text></g><g stroke-linecap="round" transform="translate(698.463164480109 270.34737898174086) rotate(0 67.0999755859375 55.79998779296875)"><path d="M27.9 0 C60.6 1.54, 92.09 -4.74, 106.3 0 C128.14 0.86, 130.69 11.04, 134.2 27.9 C133.07 45.22, 133.41 57.31, 134.2 83.7 C132.68 102.43, 121.92 109.18, 106.3 111.6 C88.06 111.09, 73.55 115.56, 27.9 111.6 C7.49 111.42, -1.15 103.22, 0 83.7 C1.69 72.74, -1.28 54.87, 0 27.9 C2.46 7.42, 11.19 2.18, 27.9 0" stroke="none" stroke-width="0" fill="#1e1e1e"></path><path d="M27.9 0 C56.97 0.29, 85.73 -0.59, 106.3 0 M27.9 0 C58.19 -0.97, 87.67 -0.73, 106.3 0 M106.3 0 C125.02 -0.26, 135.08 9.14, 134.2 27.9 M106.3 0 C125.85 2.14, 133.78 10.16, 134.2 27.9 M134.2 27.9 C132.13 47.31, 135.36 62.23, 134.2 83.7 M134.2 27.9 C134.01 45.66, 133.56 62.48, 134.2 83.7 M134.2 83.7 C134.54 101.75, 126.3 110.72, 106.3 111.6 M134.2 83.7 C136.47 103.88, 125.59 111.98, 106.3 111.6 M106.3 111.6 C85.5 112.36, 61.01 113.68, 27.9 111.6 M106.3 111.6 C76.73 110.54, 49.21 112, 27.9 111.6 M27.9 111.6 C8.07 111.17, 1.38 101.56, 0 83.7 M27.9 111.6 C10.89 111.6, -1.16 103.77, 0 83.7 M0 83.7 C0.31 63.76, -0.68 47.28, 0 27.9 M0 83.7 C1.25 71.26, 0.05 57.03, 0 27.9 M0 27.9 C1.89 10.62, 10.2 -0.34, 27.9 0 M0 27.9 C1.91 10.91, 7.99 -0.52, 27.9 0" stroke="#1e1e1e" stroke-width="2" fill="none"></path></g><g transform="translate(709.4254447535465 314.6473667747096) rotate(0 56.1376953125 11.5)"><text x="56.1376953125" y="0" font-family="Helvetica, Segoe UI Emoji" font-size="20px" fill="#ffffff" text-anchor="middle" style="white-space: pre;" direction="ltr" dominant-baseline="text-before-edge">Environment</text></g><g stroke-linecap="round" transform="translate(725.4143375276518 434.64132003539027) rotate(0 50.97990073632397 45.98829578143918)"><path d="M22.99 0 C47.5 1.82, 62.02 2.7, 78.97 0 C93.04 0.65, 100.4 6.35, 101.96 22.99 C100.21 40.15, 98.76 54.63, 101.96 68.98 C98.56 86.86, 97.75 89.84, 78.97 91.98 C63.26 92.52, 50.03 93.62, 22.99 91.98 C5.76 92.74, 1.77 86.21, 0 68.98 C2.71 49.69, 2.13 36.34, 0 22.99 C-3.47 4.62, 9.29 -0.43, 22.99 0" stroke="none" stroke-width="0" fill="#1e1e1e"></path><path d="M22.99 0 C40.18 -0.96, 55.43 0.63, 78.97 0 M22.99 0 C37.59 -0.04, 52.51 0.01, 78.97 0 M78.97 0 C95.12 1.86, 101.59 8.41, 101.96 22.99 M78.97 0 C94.65 -2.05, 100.23 5.85, 101.96 22.99 M101.96 22.99 C102.37 40.94, 101.5 58.58, 101.96 68.98 M101.96 22.99 C101.84 40.84, 102.37 58.8, 101.96 68.98 M101.96 68.98 C103.93 85.69, 94.9 92.31, 78.97 91.98 M101.96 68.98 C101.5 83.66, 94.69 93.28, 78.97 91.98 M78.97 91.98 C61.72 91.33, 40.78 90.6, 22.99 91.98 M78.97 91.98 C65.06 92.23, 53.08 92.07, 22.99 91.98 M22.99 91.98 C9.05 91.98, -1.01 85.59, 0 68.98 M22.99 91.98 C8.37 92.49, 0.23 84.81, 0 68.98 M0 68.98 C-1.26 57.08, -0.16 49.87, 0 22.99 M0 68.98 C1.12 53.91, 0.62 37.35, 0 22.99 M0 22.99 C1.66 9.06, 6.53 -0.45, 22.99 0 M0 22.99 C2.11 7.18, 9.84 1.26, 22.99 0" stroke="#1e1e1e" stroke-width="2" fill="none"></path></g><g transform="translate(754.5742690867296 471.2191989092696) rotate(0 21.819969177246094 9.41041690755985)"><text x="21.819969177246094" y="0" font-family="Helvetica, Segoe UI Emoji" font-size="16.36594244793018px" fill="#ffffff" text-anchor="middle" style="white-space: pre;" direction="ltr" dominant-baseline="text-before-edge">Policy</text></g><g mask="url(#mask-YjKcU8AT-oMNl8r4fUcZc)" stroke-linecap="round"><g transform="translate(844.1404267372172 431.67607026050916) rotate(0 20.44137726244753 -49.98568695483527)"><path d="M0.15 -0.48 C6.99 -8.7, 38.11 -31.83, 40.22 -48.44 C42.33 -65.05, 17.3 -91.52, 12.81 -100.13 M-1.22 -1.78 C6.08 -9.89, 40.37 -30.81, 42.58 -47 C44.8 -63.18, 16.88 -90.22, 12.08 -98.89" stroke="#1e1e1e" stroke-width="2" fill="none"></path></g><g transform="translate(844.1404267372172 431.67607026050916) rotate(0 20.44137726244753 -49.98568695483527)"><path d="M33.12 -85.39 C27.31 -89.62, 22.9 -91.54, 12.08 -98.89 M33.12 -85.39 C27.43 -88.35, 20.79 -92.78, 12.08 -98.89" stroke="#1e1e1e" stroke-width="2" fill="none"></path></g><g transform="translate(844.1404267372172 431.67607026050916) rotate(0 20.44137726244753 -49.98568695483527)"><path d="M19.52 -75.02 C16.8 -81.68, 15.57 -86.02, 12.08 -98.89 M19.52 -75.02 C17.69 -80.95, 14.96 -88.36, 12.08 -98.89" stroke="#1e1e1e" stroke-width="2" fill="none"></path></g></g><mask id="mask-YjKcU8AT-oMNl8r4fUcZc"><rect x="0" y="0" fill="#fff" width="985.0231812621123" height="631.6474441701797"></rect><rect x="860.2813218260771" y="375.89275094922857" fill="#000" width="49.48371887207031" height="15.056667052095763" opacity="1"></rect></mask><g transform="translate(860.2813218260771 375.89275094922857) rotate(0 4.600779215944087 5.4790297404779125)"><text x="24.741859436035156" y="0" font-family="Helvetica, Segoe UI Emoji" font-size="13.092753958344144px" fill="#1e1e1e" text-anchor="middle" style="white-space: pre;" direction="ltr" dominant-baseline="text-before-edge">1. action</text></g><g mask="url(#mask-6_x2X3ls5vPk5P9JVTC-8)" stroke-linecap="round"><g transform="translate(814.322289909097 537.9155711947589) rotate(0 36.9870399213007 -18.002511720276885)"><path d="M0.53 -0.1 C7.04 3.93, 26.92 25.57, 39.12 24.03 C51.33 22.48, 67.92 2.89, 73.75 -9.37 C79.59 -21.63, 81.69 -41.1, 74.16 -49.51 C66.62 -57.93, 35.82 -58.46, 28.56 -59.86 M-0.65 -1.19 C5.74 2.54, 26.18 24.2, 38.43 22.49 C50.69 20.78, 66.86 0.43, 72.87 -11.48 C78.89 -23.39, 81.6 -40.89, 74.5 -48.97 C67.4 -57.05, 37.87 -58.39, 30.27 -59.97" stroke="#1e1e1e" stroke-width="1" fill="none"></path></g><g transform="translate(814.322289909097 537.9155711947589) rotate(0 36.9870399213007 -18.002511720276885)"><path d="M52.6 -64.88 C45.6 -62.45, 40.78 -62.14, 30.27 -59.97 M52.6 -64.88 C44.32 -64.21, 38.45 -60.93, 30.27 -59.97" stroke="#1e1e1e" stroke-width="1" fill="none"></path></g><g transform="translate(814.322289909097 537.9155711947589) rotate(0 36.9870399213007 -18.002511720276885)"><path d="M50.53 -49.37 C44.18 -51.7, 40 -56.13, 30.27 -59.97 M50.53 -49.37 C42.93 -53.92, 37.75 -55.87, 30.27 -59.97" stroke="#1e1e1e" stroke-width="1" fill="none"></path></g></g><mask id="mask-6_x2X3ls5vPk5P9JVTC-8"><rect x="0" y="0" fill="#fff" width="988.2963697516984" height="719.7453333793025"></rect><rect x="834.1019762399111" y="513.0394385636904" fill="#000" width="108.38868713378906" height="30.113334104191527" opacity="1"></rect></mask><g transform="translate(834.1019762399111 513.0394385636904) rotate(0 19.401774104045323 6.944952370994486)"><text x="54.19434356689453" y="0" font-family="Helvetica, Segoe UI Emoji" font-size="13.092753958344144px" fill="#1e1e1e" text-anchor="middle" style="white-space: pre;" direction="ltr" dominant-baseline="text-before-edge">3. learn</text><text x="54.19434356689453" y="15.056667052095763" font-family="Helvetica, Segoe UI Emoji" font-size="13.092753958344144px" fill="#1e1e1e" text-anchor="middle" style="white-space: pre;" direction="ltr" dominant-baseline="text-before-edge">&amp; compute metrics</text></g><g stroke-linecap="round" transform="translate(587.7333628336589 217.53327814737963) rotate(0 195.23334757486978 254.33335367838538)"><path d="M32 0 C105.47 0.44, 181.59 3.68, 358.47 0 C381 2.16, 392.5 13.58, 390.47 32 C393.44 172.09, 392.08 314.92, 390.47 476.67 C392.48 495.35, 376.69 510.75, 358.47 508.67 C266.5 505.81, 172 507.26, 32 508.67 C14.21 508.59, 2.37 500.34, 0 476.67 C-2.78 384.98, -1.54 294.6, 0 32 C3.39 12.88, 9.53 1.34, 32 0" stroke="none" stroke-width="0" fill="#e9ecef"></path><path d="M32 0 C131.38 0.66, 232.93 1, 358.47 0 M358.47 0 C378.38 -0.23, 389.79 11.68, 390.47 32 M390.47 32 C391.7 175.58, 391.72 321.55, 390.47 476.67 M390.47 476.67 C390.69 497.89, 377.98 509.8, 358.47 508.67 M358.47 508.67 C238.76 510.01, 119 507.91, 32 508.67 M32 508.67 C9.5 510.02, -0.19 498.28, 0 476.67 M0 476.67 C1.38 329.93, 1.79 184.22, 0 32 M0 32 C-0.76 11.27, 12.64 0.65, 32 0" stroke="#1e1e1e" stroke-width="2.5" fill="none" stroke-dasharray="8 10"></path></g><g transform="translate(592.7333628336589 222.53327814737963) rotate(0 89.66796875 11.5)"><text x="0" y="0" font-family="Helvetica, Segoe UI Emoji" font-size="20px" fill="#1e1e1e" text-anchor="start" style="white-space: pre;" direction="ltr" dominant-baseline="text-before-edge">    agents[2].Train(n)</text></g><g stroke-linecap="round" transform="translate(770.5843486729176 276.87369477121456) rotate(0 54.907716934848665 45.66096944074667)"><path d="M22.83 0 C42.78 4.42, 56.77 -1.91, 86.98 0 C103.42 3.42, 112.04 5.66, 109.82 22.83 C112.56 38.35, 110.99 49.73, 109.82 68.49 C111.27 80.45, 99.54 91.52, 86.98 91.32 C63.23 88.53, 42.09 94.04, 22.83 91.32 C9.56 93.3, 0.36 83.3, 0 68.49 C-0.16 57.44, 2.6 38.52, 0 22.83 C-2.05 10.06, 6.45 2.85, 22.83 0" stroke="none" stroke-width="0" fill="#1e1e1e"></path><path d="M22.83 0 C39.53 1.08, 58.18 -1.35, 86.98 0 M22.83 0 C44.43 0.09, 64.47 -0.12, 86.98 0 M86.98 0 C101.34 0.4, 108.45 5.7, 109.82 22.83 M86.98 0 C104.05 -2.17, 109.02 7.15, 109.82 22.83 M109.82 22.83 C110.8 34.35, 110.17 46.87, 109.82 68.49 M109.82 22.83 C110.57 38.76, 108.85 55.73, 109.82 68.49 M109.82 68.49 C109.46 83.23, 101.2 91.16, 86.98 91.32 M109.82 68.49 C108.96 84.43, 100.92 92.33, 86.98 91.32 M86.98 91.32 C69.24 92.46, 56.02 91.83, 22.83 91.32 M86.98 91.32 C66.09 91.72, 46.08 90.34, 22.83 91.32 M22.83 91.32 C5.98 90.7, -1.72 82.55, 0 68.49 M22.83 91.32 C7.08 91.64, 0.65 82.27, 0 68.49 M0 68.49 C0.05 56.86, 1.71 46.61, 0 22.83 M0 68.49 C-0.32 56.21, 0.25 45.81, 0 22.83 M0 22.83 C0.86 9.57, 9.06 -1.54, 22.83 0 M0 22.83 C1.99 9.79, 6.37 1.75, 22.83 0" stroke="#1e1e1e" stroke-width="2" fill="none"></path></g><g transform="translate(779.5547510755755 313.12424730440136) rotate(0 45.93731453219074 9.410416907559863)"><text x="45.93731453219074" y="0" font-family="Helvetica, Segoe UI Emoji" font-size="16.36594244793018px" fill="#ffffff" text-anchor="middle" style="white-space: pre;" direction="ltr" dominant-baseline="text-before-edge">Environment</text></g><g stroke-linecap="round" transform="translate(767.3111601833316 464.1000164416646) rotate(0 50.97990073632397 45.98829578143917)"><path d="M22.99 0 C37.61 -0.61, 44.02 -1.73, 78.97 0 C92.72 -0.16, 99.35 5.53, 101.96 22.99 C104.63 33.27, 99.16 43.63, 101.96 68.98 C104.25 81.15, 97.18 95.17, 78.97 91.98 C62.46 91.29, 46.72 94.13, 22.99 91.98 C5.56 90.57, -1.86 86.71, 0 68.98 C-1.9 56.46, -3.32 48.43, 0 22.99 C-2.91 9.23, 6.29 -2.52, 22.99 0" stroke="none" stroke-width="0" fill="#1e1e1e"></path><path d="M22.99 0 C39.42 -1.4, 53.82 -0.39, 78.97 0 M22.99 0 C35.61 -0.32, 50.95 0.23, 78.97 0 M78.97 0 C93.11 0.06, 102.49 7.11, 101.96 22.99 M78.97 0 C93.76 0.15, 100.56 9.53, 101.96 22.99 M101.96 22.99 C101.36 36.32, 101.07 48.03, 101.96 68.98 M101.96 22.99 C101.31 34.74, 101.94 46.59, 101.96 68.98 M101.96 68.98 C100.51 84.94, 95.28 91.45, 78.97 91.98 M101.96 68.98 C102.67 82.47, 93.61 93.59, 78.97 91.98 M78.97 91.98 C65.87 91.59, 54.85 92.99, 22.99 91.98 M78.97 91.98 C60.38 92.4, 41.82 92.14, 22.99 91.98 M22.99 91.98 C7.08 93.04, -1.49 85.26, 0 68.98 M22.99 91.98 C8.21 90.95, -1.81 82.98, 0 68.98 M0 68.98 C1.35 57.27, 1.06 47.07, 0 22.99 M0 68.98 C0.27 53.16, 0.7 36.47, 0 22.99 M0 22.99 C-0.28 6.11, 6.59 -0.84, 22.99 0 M0 22.99 C0.55 8.47, 6.32 -1.76, 22.99 0" stroke="#1e1e1e" stroke-width="2" fill="none"></path></g><g transform="translate(796.4710917424095 500.6778953155439) rotate(0 21.819969177246094 9.41041690755985)"><text x="21.819969177246094" y="0" font-family="Helvetica, Segoe UI Emoji" font-size="16.36594244793018px" fill="#ffffff" text-anchor="middle" style="white-space: pre;" direction="ltr" dominant-baseline="text-before-edge">Policy</text></g><g mask="url(#mask-33I7DQ8vqJ8SVyHo9WAIk)" stroke-linecap="round"><g transform="translate(886.037249392897 461.13476666678343) rotate(0 20.44137726244753 -49.98568695483529)"><path d="M-0.07 -0.71 C6.98 -9, 39.67 -32.73, 41.63 -49.45 C43.59 -66.17, 16.3 -92.54, 11.68 -101.02 M-1.56 1.54 C5.45 -6.68, 38.47 -31.57, 41.07 -48.54 C43.67 -65.5, 19.01 -91.77, 14.02 -100.26" stroke="#1e1e1e" stroke-width="2" fill="none"></path></g><g transform="translate(886.037249392897 461.13476666678343) rotate(0 20.44137726244753 -49.98568695483529)"><path d="M34.77 -86.32 C28.49 -88.49, 22.62 -94.89, 14.02 -100.26 M34.77 -86.32 C29.64 -89.31, 26.09 -92.58, 14.02 -100.26" stroke="#1e1e1e" stroke-width="2" fill="none"></path></g><g transform="translate(886.037249392897 461.13476666678343) rotate(0 20.44137726244753 -49.98568695483529)"><path d="M20.95 -76.24 C18.02 -80.86, 15.52 -89.72, 14.02 -100.26 M20.95 -76.24 C18.66 -81.33, 18.04 -86.74, 14.02 -100.26" stroke="#1e1e1e" stroke-width="2" fill="none"></path></g></g><mask id="mask-33I7DQ8vqJ8SVyHo9WAIk"><rect x="0" y="0" fill="#fff" width="1026.9200039177922" height="661.106140576454"></rect><rect x="902.1781444817569" y="405.35144735550284" fill="#000" width="49.48371887207031" height="15.056667052095763" opacity="1"></rect></mask><g transform="translate(902.1781444817569 405.3514473555029) rotate(0 3.9413814009972015 6.0398843023097015)"><text x="24.741859436035156" y="0" font-family="Helvetica, Segoe UI Emoji" font-size="13.092753958344144px" fill="#1e1e1e" text-anchor="middle" style="white-space: pre;" direction="ltr" dominant-baseline="text-before-edge">1. action</text></g><g mask="url(#mask-rD5toN_ex1qrBQDRdzv6j)" stroke-linecap="round"><g transform="translate(755.6846453409544 314.5506997451055) rotate(0 -29.701309843155524 26.515549177975743)"><path d="M-1.19 -1.06 C-11.15 3.91, -51.59 21.64, -60.45 30.53 C-69.32 39.43, -55.49 48.52, -54.41 52.32 M0.38 1 C-9.16 5.6, -49 20.31, -58.3 29.02 C-67.59 37.73, -56.15 49, -55.38 53.27" stroke="#1e1e1e" stroke-width="2" fill="none"></path></g><g transform="translate(755.6846453409544 314.5506997451055) rotate(0 -29.701309843155524 26.515549177975743)"><path d="M-64.17 44.91 C-63.07 45.95, -58.71 48.63, -55.38 53.27 M-64.17 44.91 C-62.22 46.76, -59.9 48.54, -55.38 53.27" stroke="#1e1e1e" stroke-width="2" fill="none"></path></g><g transform="translate(755.6846453409544 314.5506997451055) rotate(0 -29.701309843155524 26.515549177975743)"><path d="M-56.74 41.21 C-57.41 43.07, -54.84 46.64, -55.38 53.27 M-56.74 41.21 C-56.58 43.97, -56.05 46.65, -55.38 53.27" stroke="#1e1e1e" stroke-width="2" fill="none"></path></g></g><mask id="mask-rD5toN_ex1qrBQDRdzv6j"><rect x="0" y="0" fill="#fff" width="915.0872650272654" height="467.58179810105696"></rect><rect x="653.3496831253465" y="328.86870808361164" fill="#000" width="85.86468505859375" height="30.113334104191527" opacity="1"></rect></mask><g transform="translate(653.3496831253465 328.86870808361164) rotate(0 70.82134412795465 11.787367547020835)"><text x="42.932342529296875" y="0" font-family="Helvetica, Segoe UI Emoji" font-size="13.092753958344144px" fill="#1e1e1e" text-anchor="middle" style="white-space: pre;" direction="ltr" dominant-baseline="text-before-edge">2. observation </text><text x="42.932342529296875" y="15.056667052095763" font-family="Helvetica, Segoe UI Emoji" font-size="13.092753958344144px" fill="#1e1e1e" text-anchor="middle" style="white-space: pre;" direction="ltr" dominant-baseline="text-before-edge">+ reward</text></g><g stroke-linecap="round"><g transform="translate(444.25015258789085 62.806213378906136) rotate(0 0 327.9999923706056)"><path d="M-0.93 -0.54 C-1.03 108.55, -0.93 546.35, -0.9 655.75 M0.79 1.78 C1.08 111.57, 1.18 547.94, 1.33 657.16" stroke="#1e1e1e" stroke-width="2" fill="none"></path></g></g><mask></mask><g transform="translate(348.2141342163085 60.399979019165016) rotate(0 36.5859375 16.100000000000023)"><text x="36.5859375" y="0" font-family="Helvetica, Segoe UI Emoji" font-size="28px" fill="#1e1e1e" text-anchor="middle" style="white-space: pre;" direction="ltr" dominant-baseline="text-before-edge">Setup</text></g><g transform="translate(461.65538787841786 59.29994087219234) rotate(0 173.8720703125 16.100000000000023)"><text x="0" y="0" font-family="Helvetica, Segoe UI Emoji" font-size="28px" fill="#1e1e1e" text-anchor="start" style="white-space: pre;" direction="ltr" dominant-baseline="text-before-edge">academy.Train(n) -&gt; metrics</text></g><g transform="translate(460.65547943115223 96.19994087219243) rotate(0 286.953125 9.199999999999989)"><text x="0" y="0" font-family="Helvetica, Segoe UI Emoji" font-size="16px" fill="#1e1e1e" text-anchor="start" style="white-space: pre;" direction="ltr" dominant-baseline="text-before-edge">Trains every agent for n episodes and returns the array of their computed metrics</text></g><g transform="translate(49.426078796386605 113.49995994567871) rotate(0 182.8564453125 115)"><text x="0" y="0" font-family="Helvetica, Segoe UI Emoji" font-size="20px" fill="#1e1e1e" text-anchor="start" style="white-space: pre;" direction="ltr" dominant-baseline="text-before-edge">- Env : gym.env</text><text x="0" y="23" font-family="Helvetica, Segoe UI Emoji" font-size="20px" fill="#1e1e1e" text-anchor="start" style="white-space: pre;" direction="ltr" dominant-baseline="text-before-edge">training environment that will be </text><text x="0" y="46" font-family="Helvetica, Segoe UI Emoji" font-size="20px" fill="#1e1e1e" text-anchor="start" style="white-space: pre;" direction="ltr" dominant-baseline="text-before-edge">duplicated for each agent</text><text x="0" y="69" font-family="Helvetica, Segoe UI Emoji" font-size="20px" fill="#1e1e1e" text-anchor="start" style="white-space: pre;" direction="ltr" dominant-baseline="text-before-edge"></text><text x="0" y="92" font-family="Helvetica, Segoe UI Emoji" font-size="20px" fill="#1e1e1e" text-anchor="start" style="white-space: pre;" direction="ltr" dominant-baseline="text-before-edge">- agents : dict&lt;AgentConfig&gt;</text><text x="0" y="115" font-family="Helvetica, Segoe UI Emoji" font-size="20px" fill="#1e1e1e" text-anchor="start" style="white-space: pre;" direction="ltr" dominant-baseline="text-before-edge">configuration for each agent to train</text><text x="0" y="138" font-family="Helvetica, Segoe UI Emoji" font-size="20px" fill="#1e1e1e" text-anchor="start" style="white-space: pre;" direction="ltr" dominant-baseline="text-before-edge"></text><text x="0" y="161" font-family="Helvetica, Segoe UI Emoji" font-size="20px" fill="#1e1e1e" text-anchor="start" style="white-space: pre;" direction="ltr" dominant-baseline="text-before-edge">- metrics : AgentMetrics</text><text x="0" y="184" font-family="Helvetica, Segoe UI Emoji" font-size="20px" fill="#1e1e1e" text-anchor="start" style="white-space: pre;" direction="ltr" dominant-baseline="text-before-edge">metrics to compute every step and every </text><text x="0" y="207" font-family="Helvetica, Segoe UI Emoji" font-size="20px" fill="#1e1e1e" text-anchor="start" style="white-space: pre;" direction="ltr" dominant-baseline="text-before-edge">episode of the training for each agent </text></g><g transform="translate(621.6955601206996 621.1719463816861) rotate(0 166.609375 36.8)"><text x="0" y="0" font-family="Helvetica, Segoe UI Emoji" font-size="16px" fill="#1e1e1e" text-anchor="start" style="white-space: pre;" direction="ltr" dominant-baseline="text-before-edge">The agent automatically:</text><text x="0" y="18.4" font-family="Helvetica, Segoe UI Emoji" font-size="16px" fill="#1e1e1e" text-anchor="start" style="white-space: pre;" direction="ltr" dominant-baseline="text-before-edge">- computes the step and episode metrics</text><text x="0" y="36.8" font-family="Helvetica, Segoe UI Emoji" font-size="16px" fill="#1e1e1e" text-anchor="start" style="white-space: pre;" direction="ltr" dominant-baseline="text-before-edge">- collects experiences in the experiences buffer</text><text x="0" y="55.199999999999996" font-family="Helvetica, Segoe UI Emoji" font-size="16px" fill="#1e1e1e" text-anchor="start" style="white-space: pre;" direction="ltr" dominant-baseline="text-before-edge">- calls policy.learnFrom(experiences)</text></g><g stroke-linecap="round" transform="translate(612.2685335002204 465.5052544443231) rotate(0 54.907716934848665 45.660969440746655)"><path d="M22.83 0 C45.57 -0.58, 69.74 1.01, 86.98 0 M22.83 0 C46.1 -0.76, 70.1 -1.16, 86.98 0 M86.98 0 C100.45 -1.75, 111.75 6.95, 109.82 22.83 M86.98 0 C100.85 0.07, 110.43 6.98, 109.82 22.83 M109.82 22.83 C111.46 34.91, 109.5 46.67, 109.82 68.49 M109.82 22.83 C109.98 34.84, 109.47 48.16, 109.82 68.49 M109.82 68.49 C108.99 84.21, 102.65 92.51, 86.98 91.32 M109.82 68.49 C108.15 84.44, 103.33 90.72, 86.98 91.32 M86.98 91.32 C67.17 89.18, 45.68 90.85, 22.83 91.32 M86.98 91.32 C73.9 91.17, 60 91.22, 22.83 91.32 M22.83 91.32 C7.44 91.77, -0.3 83.64, 0 68.49 M22.83 91.32 C6.94 92.55, -1.71 84.8, 0 68.49 M0 68.49 C-0.95 52.51, -1.25 37.98, 0 22.83 M0 68.49 C0.24 53.09, -0.76 35.63, 0 22.83 M0 22.83 C-0.31 9.16, 8.17 1.35, 22.83 0 M0 22.83 C-0.33 5.82, 6.38 -0.97, 22.83 0" stroke="#1e1e1e" stroke-width="2" fill="none"></path></g><g transform="translate(623.0689887773543 492.34539006995004) rotate(0 44.107261657714844 18.8208338151197)"><text x="44.107261657714844" y="0" font-family="Helvetica, Segoe UI Emoji" font-size="16.36594244793018px" fill="#1e1e1e" text-anchor="middle" style="white-space: pre;" direction="ltr" dominant-baseline="text-before-edge">experiences</text><text x="44.107261657714844" y="18.820833815119705" font-family="Helvetica, Segoe UI Emoji" font-size="16.36594244793018px" fill="#1e1e1e" text-anchor="middle" style="white-space: pre;" direction="ltr" dominant-baseline="text-before-edge">buffer</text></g><g stroke-linecap="round"><g transform="translate(705.9580331099661 404.1381714469509) rotate(0 -16.000012849506575 24.84209562602797)"><path d="M0.28 0.23 C-4.97 3.04, -26.16 8.18, -31.36 16.26 C-36.56 24.35, -30.73 43.15, -30.91 48.74 M-1.03 -0.69 C-6.4 1.78, -26.96 5.91, -31.97 14.28 C-36.99 22.66, -31.02 43.45, -31.1 49.56" stroke="#1e1e1e" stroke-width="2" fill="none"></path></g><g transform="translate(705.9580331099661 404.1381714469509) rotate(0 -16.000012849506575 24.84209562602797)"><path d="M-38.8 34.58 C-36.13 40.14, -33.68 45.47, -31.1 49.56 M-38.8 34.58 C-37.85 38.5, -36.22 41.79, -31.1 49.56" stroke="#1e1e1e" stroke-width="2" fill="none"></path></g><g transform="translate(705.9580331099661 404.1381714469509) rotate(0 -16.000012849506575 24.84209562602797)"><path d="M-27.37 33.13 C-28.29 39.18, -29.41 44.96, -31.1 49.56 M-27.37 33.13 C-28.95 37.38, -29.84 40.99, -31.1 49.56" stroke="#1e1e1e" stroke-width="2" fill="none"></path></g></g><mask></mask><g stroke-linecap="round"><g transform="translate(715.2211139076634 404.9802638606022) rotate(0 38.31581517269741 23.57895700555099)"><path d="M0.32 0.85 C8.38 1.45, 35.31 -4.55, 48.04 3.05 C60.78 10.65, 72.04 38.92, 76.75 46.44 M-0.98 0.25 C7.49 1, 37.5 -3.87, 50.34 3.98 C63.17 11.84, 71.7 40.35, 76.04 47.38" stroke="#1e1e1e" stroke-width="2" fill="none"></path></g><g transform="translate(715.2211139076634 404.9802638606022) rotate(0 38.31581517269741 23.57895700555099)"><path d="M58.48 29.59 C64.62 33.09, 66.09 39.49, 76.04 47.38 M58.48 29.59 C62.92 32.99, 67.4 37, 76.04 47.38" stroke="#1e1e1e" stroke-width="2" fill="none"></path></g><g transform="translate(715.2211139076634 404.9802638606022) rotate(0 38.31581517269741 23.57895700555099)"><path d="M74.02 22.47 C75.87 27.96, 73.08 36.31, 76.04 47.38 M74.02 22.47 C74.71 27.71, 75.46 33.43, 76.04 47.38" stroke="#1e1e1e" stroke-width="2" fill="none"></path></g></g><mask></mask></svg>